<?xml version="1.0" encoding="UTF-8" standalone="no"?>
<!DOCTYPE svg PUBLIC "-//W3C//DTD SVG 1.1//EN"
 "http://www.w3.org/Graphics/SVG/1.1/DTD/svg11.dtd">
<!-- Generated by graphviz version 2.43.0 (0)
 -->
<!-- Title: %3 Pages: 1 -->
<svg width="333pt" height="244pt"
 viewBox="0.00 0.00 333.00 244.00" xmlns="http://www.w3.org/2000/svg" xmlns:xlink="http://www.w3.org/1999/xlink">
<g id="graph0" class="graph" transform="scale(1 1) rotate(0) translate(4 240)">
<title>%3</title>
<polygon fill="white" stroke="transparent" points="-4,4 -4,-240 329,-240 329,4 -4,4"/>
<!-- races -->
<g id="node1" class="node">
<title>races</title>
<polygon fill="none" stroke="black" points="251,-204 251,-232 317,-232 317,-204 251,-204"/>
<text text-anchor="start" x="259.5" y="-215.2" font-family="Helvetica,sans-Serif" font-weight="bold" font-size="16.00">races</text>
<polygon fill="none" stroke="black" points="251,-179 251,-204 317,-204 317,-179 251,-179"/>
<text text-anchor="start" x="256" y="-188.8" font-family="Helvetica,sans-Serif" text-decoration="underline" font-size="14.00">raceId</text>
<polygon fill="none" stroke="black" points="251,-154 251,-179 317,-179 317,-154 251,-154"/>
<text text-anchor="start" x="256" y="-162.8" font-family="Helvetica,sans-Serif" font-size="14.00">year</text>
<polygon fill="none" stroke="black" points="251,-129 251,-154 317,-154 317,-129 251,-129"/>
<text text-anchor="start" x="256" y="-137.8" font-family="Helvetica,sans-Serif" font-size="14.00">round</text>
<polygon fill="none" stroke="black" points="251,-104 251,-129 317,-129 317,-104 251,-104"/>
<text text-anchor="start" x="256" y="-112.8" font-family="Helvetica,sans-Serif" font-size="14.00">circuitId</text>
<polygon fill="none" stroke="black" points="251,-79 251,-104 317,-104 317,-79 251,-79"/>
<text text-anchor="start" x="256" y="-87.8" font-family="Helvetica,sans-Serif" font-size="14.00">name</text>
<polygon fill="none" stroke="black" points="251,-54 251,-79 317,-79 317,-54 251,-54"/>
<text text-anchor="start" x="256" y="-62.8" font-family="Helvetica,sans-Serif" font-size="14.00">date</text>
<polygon fill="none" stroke="black" points="251,-29 251,-54 317,-54 317,-29 251,-29"/>
<text text-anchor="start" x="256" y="-37.8" font-family="Helvetica,sans-Serif" font-size="14.00">time</text>
<polygon fill="none" stroke="black" points="251,-4 251,-29 317,-29 317,-4 251,-4"/>
<text text-anchor="start" x="256" y="-12.8" font-family="Helvetica,sans-Serif" font-size="14.00">url</text>
</g>
<!-- driverStandings -->
<g id="node2" class="node">
<title>driverStandings</title>
<polygon fill="none" stroke="black" points="8,-191 8,-219 162,-219 162,-191 8,-191"/>
<text text-anchor="start" x="13" y="-202.2" font-family="Helvetica,sans-Serif" font-weight="bold" font-size="16.00">driverStandings</text>
<polygon fill="none" stroke="black" points="8,-166 8,-191 162,-191 162,-166 8,-166"/>
<text text-anchor="start" x="13" y="-175.8" font-family="Helvetica,sans-Serif" text-decoration="underline" font-size="14.00">driverStandingsId</text>
<polygon fill="none" stroke="black" points="8,-141 8,-166 162,-166 162,-141 8,-141"/>
<text text-anchor="start" x="13" y="-150.8" font-family="Helvetica,sans-Serif" font-style="italic" font-size="14.00">raceId</text>
<polygon fill="none" stroke="black" points="8,-116 8,-141 162,-141 162,-116 8,-116"/>
<text text-anchor="start" x="13" y="-125.8" font-family="Helvetica,sans-Serif" font-style="italic" font-size="14.00">driverId</text>
<polygon fill="none" stroke="black" points="8,-91 8,-116 162,-116 162,-91 8,-91"/>
<text text-anchor="start" x="13" y="-99.8" font-family="Helvetica,sans-Serif" font-size="14.00">points</text>
<polygon fill="none" stroke="black" points="8,-66 8,-91 162,-91 162,-66 8,-66"/>
<text text-anchor="start" x="13" y="-74.8" font-family="Helvetica,sans-Serif" font-size="14.00">position</text>
<polygon fill="none" stroke="black" points="8,-41 8,-66 162,-66 162,-41 8,-41"/>
<text text-anchor="start" x="13" y="-49.8" font-family="Helvetica,sans-Serif" font-size="14.00">positionText</text>
<polygon fill="none" stroke="black" points="8,-16 8,-41 162,-41 162,-16 8,-16"/>
<text text-anchor="start" x="13" y="-24.8" font-family="Helvetica,sans-Serif" font-size="14.00">wins</text>
</g>
<!-- driverStandings&#45;&#45;races -->
<g id="edge1" class="edge">
<title>driverStandings&#45;&#45;races</title>
<path fill="none" stroke="#7f7f7f" stroke-dasharray="5,2" d="M170.12,-118C195.32,-118 221.81,-118 242.79,-118"/>
<text text-anchor="start" x="232.79" y="-106.8" font-family="Times,serif" font-size="14.00">1</text>
<text text-anchor="start" x="170.12" y="-106.8" font-family="Times,serif" font-size="14.00">0..N</text>
</g>
</g>
</svg>
