<?xml version="1.0" encoding="UTF-8" standalone="no"?>
<!DOCTYPE svg PUBLIC "-//W3C//DTD SVG 1.1//EN"
 "http://www.w3.org/Graphics/SVG/1.1/DTD/svg11.dtd">
<!-- Generated by graphviz version 2.43.0 (0)
 -->
<!-- Title: %3 Pages: 1 -->
<svg width="350pt" height="524pt"
 viewBox="0.00 0.00 350.00 523.50" xmlns="http://www.w3.org/2000/svg" xmlns:xlink="http://www.w3.org/1999/xlink">
<g id="graph0" class="graph" transform="scale(1 1) rotate(0) translate(4 519.5)">
<title>%3</title>
<polygon fill="white" stroke="transparent" points="-4,4 -4,-519.5 346,-519.5 346,4 -4,4"/>
<!-- races -->
<g id="node1" class="node">
<title>races</title>
<polygon fill="none" stroke="black" points="259.5,-483.5 259.5,-511.5 325.5,-511.5 325.5,-483.5 259.5,-483.5"/>
<text text-anchor="start" x="268" y="-494.7" font-family="Helvetica,sans-Serif" font-weight="bold" font-size="16.00">races</text>
<polygon fill="none" stroke="black" points="259.5,-458.5 259.5,-483.5 325.5,-483.5 325.5,-458.5 259.5,-458.5"/>
<text text-anchor="start" x="264.5" y="-468.3" font-family="Helvetica,sans-Serif" text-decoration="underline" font-size="14.00">raceId</text>
<polygon fill="none" stroke="black" points="259.5,-433.5 259.5,-458.5 325.5,-458.5 325.5,-433.5 259.5,-433.5"/>
<text text-anchor="start" x="264.5" y="-442.3" font-family="Helvetica,sans-Serif" font-size="14.00">year</text>
<polygon fill="none" stroke="black" points="259.5,-408.5 259.5,-433.5 325.5,-433.5 325.5,-408.5 259.5,-408.5"/>
<text text-anchor="start" x="264.5" y="-417.3" font-family="Helvetica,sans-Serif" font-size="14.00">round</text>
<polygon fill="none" stroke="black" points="259.5,-383.5 259.5,-408.5 325.5,-408.5 325.5,-383.5 259.5,-383.5"/>
<text text-anchor="start" x="264.5" y="-392.3" font-family="Helvetica,sans-Serif" font-size="14.00">circuitId</text>
<polygon fill="none" stroke="black" points="259.5,-358.5 259.5,-383.5 325.5,-383.5 325.5,-358.5 259.5,-358.5"/>
<text text-anchor="start" x="264.5" y="-367.3" font-family="Helvetica,sans-Serif" font-size="14.00">name</text>
<polygon fill="none" stroke="black" points="259.5,-333.5 259.5,-358.5 325.5,-358.5 325.5,-333.5 259.5,-333.5"/>
<text text-anchor="start" x="264.5" y="-342.3" font-family="Helvetica,sans-Serif" font-size="14.00">date</text>
<polygon fill="none" stroke="black" points="259.5,-308.5 259.5,-333.5 325.5,-333.5 325.5,-308.5 259.5,-308.5"/>
<text text-anchor="start" x="264.5" y="-317.3" font-family="Helvetica,sans-Serif" font-size="14.00">time</text>
<polygon fill="none" stroke="black" points="259.5,-283.5 259.5,-308.5 325.5,-308.5 325.5,-283.5 259.5,-283.5"/>
<text text-anchor="start" x="264.5" y="-292.3" font-family="Helvetica,sans-Serif" font-size="14.00">url</text>
</g>
<!-- driverStandings -->
<g id="node2" class="node">
<title>driverStandings</title>
<polygon fill="none" stroke="black" points="8,-336.5 8,-364.5 162,-364.5 162,-336.5 8,-336.5"/>
<text text-anchor="start" x="13" y="-347.7" font-family="Helvetica,sans-Serif" font-weight="bold" font-size="16.00">driverStandings</text>
<polygon fill="none" stroke="black" points="8,-311.5 8,-336.5 162,-336.5 162,-311.5 8,-311.5"/>
<text text-anchor="start" x="13" y="-321.3" font-family="Helvetica,sans-Serif" text-decoration="underline" font-size="14.00">driverStandingsId</text>
<polygon fill="none" stroke="black" points="8,-286.5 8,-311.5 162,-311.5 162,-286.5 8,-286.5"/>
<text text-anchor="start" x="13" y="-296.3" font-family="Helvetica,sans-Serif" font-style="italic" font-size="14.00">raceId</text>
<polygon fill="none" stroke="black" points="8,-261.5 8,-286.5 162,-286.5 162,-261.5 8,-261.5"/>
<text text-anchor="start" x="13" y="-271.3" font-family="Helvetica,sans-Serif" font-style="italic" font-size="14.00">driverId</text>
<polygon fill="none" stroke="black" points="8,-236.5 8,-261.5 162,-261.5 162,-236.5 8,-236.5"/>
<text text-anchor="start" x="13" y="-245.3" font-family="Helvetica,sans-Serif" font-size="14.00">points</text>
<polygon fill="none" stroke="black" points="8,-211.5 8,-236.5 162,-236.5 162,-211.5 8,-211.5"/>
<text text-anchor="start" x="13" y="-220.3" font-family="Helvetica,sans-Serif" font-size="14.00">position</text>
<polygon fill="none" stroke="black" points="8,-186.5 8,-211.5 162,-211.5 162,-186.5 8,-186.5"/>
<text text-anchor="start" x="13" y="-195.3" font-family="Helvetica,sans-Serif" font-size="14.00">positionText</text>
<polygon fill="none" stroke="black" points="8,-161.5 8,-186.5 162,-186.5 162,-161.5 8,-161.5"/>
<text text-anchor="start" x="13" y="-170.3" font-family="Helvetica,sans-Serif" font-size="14.00">wins</text>
</g>
<!-- driverStandings&#45;&#45;races -->
<g id="edge1" class="edge">
<title>driverStandings&#45;&#45;races</title>
<path fill="none" stroke="#7f7f7f" stroke-dasharray="5,2" d="M170.18,-318.39C198.22,-336.68 228.17,-356.21 251.3,-371.29"/>
<text text-anchor="start" x="241.3" y="-360.09" font-family="Times,serif" font-size="14.00">1</text>
<text text-anchor="start" x="170.18" y="-307.19" font-family="Times,serif" font-size="14.00">0..N</text>
</g>
<!-- drivers -->
<g id="node3" class="node">
<title>drivers</title>
<polygon fill="none" stroke="black" points="251.5,-228.5 251.5,-256.5 334.5,-256.5 334.5,-228.5 251.5,-228.5"/>
<text text-anchor="start" x="261" y="-239.7" font-family="Helvetica,sans-Serif" font-weight="bold" font-size="16.00">drivers</text>
<polygon fill="none" stroke="black" points="251.5,-203.5 251.5,-228.5 334.5,-228.5 334.5,-203.5 251.5,-203.5"/>
<text text-anchor="start" x="256.5" y="-213.3" font-family="Helvetica,sans-Serif" text-decoration="underline" font-size="14.00">driverId</text>
<polygon fill="none" stroke="black" points="251.5,-178.5 251.5,-203.5 334.5,-203.5 334.5,-178.5 251.5,-178.5"/>
<text text-anchor="start" x="256.5" y="-187.3" font-family="Helvetica,sans-Serif" font-size="14.00">driverRef</text>
<polygon fill="none" stroke="black" points="251.5,-153.5 251.5,-178.5 334.5,-178.5 334.5,-153.5 251.5,-153.5"/>
<text text-anchor="start" x="256.5" y="-162.3" font-family="Helvetica,sans-Serif" font-size="14.00">number</text>
<polygon fill="none" stroke="black" points="251.5,-128.5 251.5,-153.5 334.5,-153.5 334.5,-128.5 251.5,-128.5"/>
<text text-anchor="start" x="256.5" y="-137.3" font-family="Helvetica,sans-Serif" font-size="14.00">code</text>
<polygon fill="none" stroke="black" points="251.5,-103.5 251.5,-128.5 334.5,-128.5 334.5,-103.5 251.5,-103.5"/>
<text text-anchor="start" x="256.5" y="-112.3" font-family="Helvetica,sans-Serif" font-size="14.00">forename</text>
<polygon fill="none" stroke="black" points="251.5,-78.5 251.5,-103.5 334.5,-103.5 334.5,-78.5 251.5,-78.5"/>
<text text-anchor="start" x="256.5" y="-87.3" font-family="Helvetica,sans-Serif" font-size="14.00">surname</text>
<polygon fill="none" stroke="black" points="251.5,-53.5 251.5,-78.5 334.5,-78.5 334.5,-53.5 251.5,-53.5"/>
<text text-anchor="start" x="256.5" y="-62.3" font-family="Helvetica,sans-Serif" font-size="14.00">dob</text>
<polygon fill="none" stroke="black" points="251.5,-28.5 251.5,-53.5 334.5,-53.5 334.5,-28.5 251.5,-28.5"/>
<text text-anchor="start" x="256.5" y="-37.3" font-family="Helvetica,sans-Serif" font-size="14.00">nationality</text>
<polygon fill="none" stroke="black" points="251.5,-3.5 251.5,-28.5 334.5,-28.5 334.5,-3.5 251.5,-3.5"/>
<text text-anchor="start" x="256.5" y="-12.3" font-family="Helvetica,sans-Serif" font-size="14.00">url</text>
</g>
<!-- driverStandings&#45;&#45;drivers -->
<g id="edge2" class="edge">
<title>driverStandings&#45;&#45;drivers</title>
<path fill="none" stroke="#7f7f7f" stroke-dasharray="5,2" d="M170.18,-209.02C194.9,-193.02 221.1,-176.07 242.8,-162.02"/>
<text text-anchor="start" x="232.8" y="-150.82" font-family="Times,serif" font-size="14.00">1</text>
<text text-anchor="start" x="170.18" y="-197.82" font-family="Times,serif" font-size="14.00">0..N</text>
</g>
</g>
</svg>
